<svg width="200" height="200" xmlns="http://www.w3.org/2000/svg">
  <circle cx="125" cy="100" r="7" fill="none" stroke="#FF6347" stroke-width="2"/>
  <circle cx="112.5" cy="121.65063509461096" r="7" fill="none" stroke="#FF6347" stroke-width="2"/>
  <circle cx="87.5" cy="121.65063509461098" r="7" fill="none" stroke="#FF6347" stroke-width="2"/>
  <circle cx="75" cy="100" r="7" fill="none" stroke="#FF6347" stroke-width="2"/>
  <circle cx="87.49999999999999" cy="78.34936490538904" r="7" fill="none" stroke="#FF6347" stroke-width="2"/>
  <circle cx="112.5" cy="78.34936490538904" r="7" fill="none" stroke="#FF6347" stroke-width="2"/>
  <circle cx="150" cy="100" r="6" fill="none" stroke="#FF6347" stroke-width="2"/>
  <circle cx="143.30127018922195" cy="125" r="6" fill="none" stroke="#FF6347" stroke-width="2"/>
  <circle cx="125" cy="143.30127018922192" r="6" fill="none" stroke="#FF6347" stroke-width="2"/>
  <circle cx="100" cy="150" r="6" fill="none" stroke="#FF6347" stroke-width="2"/>
  <circle cx="75.00000000000001" cy="143.30127018922195" r="6" fill="none" stroke="#FF6347" stroke-width="2"/>
  <circle cx="56.69872981077806" cy="125" r="6" fill="none" stroke="#FF6347" stroke-width="2"/>
  <circle cx="50" cy="100" r="6" fill="none" stroke="#FF6347" stroke-width="2"/>
  <circle cx="56.69872981077807" cy="75" r="6" fill="none" stroke="#FF6347" stroke-width="2"/>
  <circle cx="74.99999999999997" cy="56.698729810778076" r="6" fill="none" stroke="#FF6347" stroke-width="2"/>
  <circle cx="99.99999999999999" cy="50" r="6" fill="none" stroke="#FF6347" stroke-width="2"/>
  <circle cx="125" cy="56.69872981077807" r="6" fill="none" stroke="#FF6347" stroke-width="2"/>
  <circle cx="143.30127018922192" cy="74.99999999999997" r="6" fill="none" stroke="#FF6347" stroke-width="2"/>
  <circle cx="175" cy="100" r="5" fill="none" stroke="#FF6347" stroke-width="2"/>
  <circle cx="170.47694655894313" cy="125.65151074942516" r="5" fill="none" stroke="#FF6347" stroke-width="2"/>
  <circle cx="157.45333323392336" cy="148.20907072649044" r="5" fill="none" stroke="#FF6347" stroke-width="2"/>
  <circle cx="137.5" cy="164.9519052838329" r="5" fill="none" stroke="#FF6347" stroke-width="2"/>
  <circle cx="113.02361332501978" cy="173.86058147591558" r="5" fill="none" stroke="#FF6347" stroke-width="2"/>
  <circle cx="86.97638667498023" cy="173.86058147591558" r="5" fill="none" stroke="#FF6347" stroke-width="2"/>
  <circle cx="62.500000000000014" cy="164.9519052838329" r="5" fill="none" stroke="#FF6347" stroke-width="2"/>
  <circle cx="42.546666766076655" cy="148.20907072649047" r="5" fill="none" stroke="#FF6347" stroke-width="2"/>
  <circle cx="29.523053441056874" cy="125.65151074942517" r="5" fill="none" stroke="#FF6347" stroke-width="2"/>
  <circle cx="25" cy="100.00000000000001" r="5" fill="none" stroke="#FF6347" stroke-width="2"/>
  <circle cx="29.523053441056874" cy="74.34848925057486" r="5" fill="none" stroke="#FF6347" stroke-width="2"/>
  <circle cx="42.54666676607664" cy="51.790929273509555" r="5" fill="none" stroke="#FF6347" stroke-width="2"/>
  <circle cx="62.499999999999964" cy="35.048094716167114" r="5" fill="none" stroke="#FF6347" stroke-width="2"/>
  <circle cx="86.97638667498022" cy="26.139418524084405" r="5" fill="none" stroke="#FF6347" stroke-width="2"/>
  <circle cx="113.02361332501975" cy="26.13941852408439" r="5" fill="none" stroke="#FF6347" stroke-width="2"/>
  <circle cx="137.5" cy="35.0480947161671" r="5" fill="none" stroke="#FF6347" stroke-width="2"/>
  <circle cx="157.45333323392333" cy="51.79092927350953" r="5" fill="none" stroke="#FF6347" stroke-width="2"/>
  <circle cx="170.4769465589431" cy="74.3484892505748" r="5" fill="none" stroke="#FF6347" stroke-width="2"/>
</svg>