<svg width="200" height="200" xmlns="http://www.w3.org/2000/svg">
  <circle cx="100" cy="100" r="8" fill="none" stroke="#8A2BE2" stroke-width="2"/>
  <circle cx="130" cy="85" r="8" fill="none" stroke="#8A2BE2" stroke-width="2"/>
  <circle cx="70" cy="85" r="8" fill="none" stroke="#8A2BE2" stroke-width="2"/>
  <circle cx="115" cy="115" r="8" fill="none" stroke="#8A2BE2" stroke-width="2"/>
  <circle cx="85" cy="115" r="8" fill="none" stroke="#8A2BE2" stroke-width="2"/>
  <circle cx="145" cy="100" r="8" fill="none" stroke="#8A2BE2" stroke-width="2"/>
  <circle cx="55" cy="100" r="8" fill="none" stroke="#8A2BE2" stroke-width="2"/>
  <circle cx="130" cy="130" r="8" fill="none" stroke="#8A2BE2" stroke-width="2"/>
  <circle cx="70" cy="130" r="8" fill="none" stroke="#8A2BE2" stroke-width="2"/>
  <circle cx="160" cy="85" r="8" fill="none" stroke="#8A2BE2" stroke-width="2"/>
  <circle cx="40" cy="85" r="8" fill="none" stroke="#8A2BE2" stroke-width="2"/>
  <circle cx="160" cy="115" r="8" fill="none" stroke="#8A2BE2" stroke-width="2"/>
  <circle cx="40" cy="115" r="8" fill="none" stroke="#8A2BE2" stroke-width="2"/>
  <line x1="100" y1="100" x2="130" y2="85" stroke="#8A2BE2" stroke-width="1"/>
  <line x1="100" y1="100" x2="70" y2="85" stroke="#8A2BE2" stroke-width="1"/>
  <line x1="100" y1="100" x2="115" y2="115" stroke="#8A2BE2" stroke-width="1"/>
  <line x1="100" y1="100" x2="85" y2="115" stroke="#8A2BE2" stroke-width="1"/>
  <line x1="100" y1="100" x2="145" y2="100" stroke="#8A2BE2" stroke-width="1"/>
  <line x1="100" y1="100" x2="55" y2="100" stroke="#8A2BE2" stroke-width="1"/>
  <line x1="100" y1="100" x2="130" y2="130" stroke="#8A2BE2" stroke-width="1"/>
  <line x1="100" y1="100" x2="70" y2="130" stroke="#8A2BE2" stroke-width="1"/>
  <line x1="100" y1="100" x2="160" y2="85" stroke="#8A2BE2" stroke-width="1"/>
  <line x1="100" y1="100" x2="40" y2="85" stroke="#8A2BE2" stroke-width="1"/>
  <line x1="100" y1="100" x2="160" y2="115" stroke="#8A2BE2" stroke-width="1"/>
  <line x1="100" y1="100" x2="40" y2="115" stroke="#8A2BE2" stroke-width="1"/>
</svg>