<svg width="200" height="200" xmlns="http://www.w3.org/2000/svg">
  <circle cx="100" cy="60" r="12" fill="none" stroke="#228B22" stroke-width="2"/>
  <circle cx="100" cy="140" r="12" fill="none" stroke="#228B22" stroke-width="2"/>
  <circle cx="80" cy="80" r="12" fill="none" stroke="#228B22" stroke-width="2"/>
  <circle cx="120" cy="80" r="12" fill="none" stroke="#228B22" stroke-width="2"/>
  <circle cx="80" cy="100" r="12" fill="none" stroke="#228B22" stroke-width="2"/>
  <circle cx="120" cy="100" r="12" fill="none" stroke="#228B22" stroke-width="2"/>
  <circle cx="80" cy="120" r="12" fill="none" stroke="#228B22" stroke-width="2"/>
  <circle cx="120" cy="120" r="12" fill="none" stroke="#228B22" stroke-width="2"/>
  <circle cx="100" cy="90" r="12" fill="none" stroke="#228B22" stroke-width="2"/>
  <circle cx="100" cy="110" r="12" fill="none" stroke="#228B22" stroke-width="2"/>
  <line x1="100" y1="60" x2="100" y2="90" stroke="#228B22" stroke-width="1"/>
  <line x1="100" y1="90" x2="80" y2="80" stroke="#228B22" stroke-width="1"/>
  <line x1="80" y1="80" x2="80" y2="100" stroke="#228B22" stroke-width="1"/>
  <line x1="80" y1="100" x2="80" y2="120" stroke="#228B22" stroke-width="1"/>
  <line x1="80" y1="120" x2="100" y2="110" stroke="#228B22" stroke-width="1"/>
  <line x1="100" y1="110" x2="120" y2="120" stroke="#228B22" stroke-width="1"/>
  <line x1="120" y1="120" x2="120" y2="100" stroke="#228B22" stroke-width="1"/>
  <line x1="120" y1="100" x2="120" y2="80" stroke="#228B22" stroke-width="1"/>
  <line x1="120" y1="80" x2="100" y2="90" stroke="#228B22" stroke-width="1"/>
  <line x1="100" y1="90" x2="100" y2="110" stroke="#228B22" stroke-width="1"/>
</svg>